<mxfile host="app.diagrams.net" agent="Mozilla/5.0 (X11; Linux x86_64; rv:132.0) Gecko/20100101 Firefox/132.0" version="24.9.1">
  <diagram name="Page-1" id="BqL3keySgc6t3MuOOJZP">
    <mxGraphModel dx="759" dy="382" grid="1" gridSize="10" guides="1" tooltips="1" connect="1" arrows="1" fold="1" page="1" pageScale="1" pageWidth="560" pageHeight="360" math="0" shadow="0">
      <root>
        <mxCell id="0" />
        <mxCell id="1" style="locked=1;" parent="0" />
        <object label="Satellites" id="xeswV9jp_O2CNcTLCLhd-55">
          <mxCell style="locked=1;" parent="0" />
        </object>
        <mxCell id="xeswV9jp_O2CNcTLCLhd-56" value="" style="group" parent="xeswV9jp_O2CNcTLCLhd-55" vertex="1" connectable="0">
          <mxGeometry x="150" y="30" width="140" height="60" as="geometry" />
        </mxCell>
        <mxCell id="xeswV9jp_O2CNcTLCLhd-57" value="" style="rounded=0;whiteSpace=wrap;html=1;strokeWidth=2;fillWeight=4;hachureGap=8;hachureAngle=45;fillColor=#dae8fc;shadow=0;glass=0;fillStyle=hatch;strokeColor=#6c8ebf;fixDash=0;" parent="xeswV9jp_O2CNcTLCLhd-56" vertex="1">
          <mxGeometry width="140" height="60" as="geometry" />
        </mxCell>
        <mxCell id="xeswV9jp_O2CNcTLCLhd-58" value="&lt;font style=&quot;font-size: 20px;&quot;&gt;Satellite A&lt;br&gt;&lt;/font&gt;" style="text;strokeColor=none;align=center;fillColor=none;html=1;verticalAlign=middle;whiteSpace=wrap;rounded=0;labelBackgroundColor=default;labelBorderColor=none;textShadow=0;movable=1;resizable=1;rotatable=1;deletable=1;editable=1;locked=0;connectable=1;" parent="xeswV9jp_O2CNcTLCLhd-56" vertex="1">
          <mxGeometry x="16.333333333333336" y="15" width="107.33333333333334" height="30" as="geometry" />
        </mxCell>
        <mxCell id="xeswV9jp_O2CNcTLCLhd-59" value="" style="group" parent="xeswV9jp_O2CNcTLCLhd-55" vertex="1" connectable="0">
          <mxGeometry x="150" y="270" width="140" height="60" as="geometry" />
        </mxCell>
        <mxCell id="xeswV9jp_O2CNcTLCLhd-60" value="" style="rounded=0;whiteSpace=wrap;html=1;strokeWidth=2;fillWeight=4;hachureGap=8;hachureAngle=45;fillColor=#dae8fc;shadow=0;glass=0;fillStyle=hatch;strokeColor=#6c8ebf;fixDash=0;" parent="xeswV9jp_O2CNcTLCLhd-59" vertex="1">
          <mxGeometry width="140" height="60" as="geometry" />
        </mxCell>
        <mxCell id="xeswV9jp_O2CNcTLCLhd-61" value="&lt;font style=&quot;font-size: 20px;&quot;&gt;Satellite C&lt;br&gt;&lt;/font&gt;" style="text;strokeColor=none;align=center;fillColor=none;html=1;verticalAlign=middle;whiteSpace=wrap;rounded=0;labelBackgroundColor=default;labelBorderColor=none;textShadow=0;movable=1;resizable=1;rotatable=1;deletable=1;editable=1;locked=0;connectable=1;" parent="xeswV9jp_O2CNcTLCLhd-59" vertex="1">
          <mxGeometry x="16.333333333333332" y="15" width="107.33333333333333" height="30" as="geometry" />
        </mxCell>
        <mxCell id="xeswV9jp_O2CNcTLCLhd-67" value="" style="group" parent="xeswV9jp_O2CNcTLCLhd-55" vertex="1" connectable="0">
          <mxGeometry x="30" y="150" width="140" height="60" as="geometry" />
        </mxCell>
        <mxCell id="xeswV9jp_O2CNcTLCLhd-68" value="" style="rounded=0;whiteSpace=wrap;html=1;strokeWidth=2;fillWeight=4;hachureGap=8;hachureAngle=45;fillColor=#dae8fc;shadow=0;glass=0;fillStyle=hatch;strokeColor=#6c8ebf;fixDash=0;" parent="xeswV9jp_O2CNcTLCLhd-67" vertex="1">
          <mxGeometry width="140" height="60" as="geometry" />
        </mxCell>
        <mxCell id="xeswV9jp_O2CNcTLCLhd-69" value="&lt;font style=&quot;font-size: 20px;&quot;&gt;Satellite B&lt;br&gt;&lt;/font&gt;" style="text;strokeColor=none;align=center;fillColor=none;html=1;verticalAlign=middle;whiteSpace=wrap;rounded=0;labelBackgroundColor=default;labelBorderColor=none;textShadow=0;movable=1;resizable=1;rotatable=1;deletable=1;editable=1;locked=0;connectable=1;" parent="xeswV9jp_O2CNcTLCLhd-67" vertex="1">
          <mxGeometry x="16.333333333333336" y="15" width="107.33333333333334" height="30" as="geometry" />
        </mxCell>
        <mxCell id="xeswV9jp_O2CNcTLCLhd-87" value="Controller" style="locked=1;" parent="0" />
        <mxCell id="xeswV9jp_O2CNcTLCLhd-88" value="" style="group;fillColor=none;strokeColor=#b85450;" parent="xeswV9jp_O2CNcTLCLhd-87" vertex="1" connectable="0">
          <mxGeometry x="390" y="150" width="140" height="60" as="geometry" />
        </mxCell>
        <mxCell id="xeswV9jp_O2CNcTLCLhd-89" value="" style="rounded=0;whiteSpace=wrap;html=1;strokeWidth=2;fillWeight=4;hachureGap=8;hachureAngle=45;fillColor=#f8cecc;shadow=0;glass=0;fillStyle=hatch;strokeColor=#b85450;fixDash=0;" parent="xeswV9jp_O2CNcTLCLhd-88" vertex="1">
          <mxGeometry width="140" height="60" as="geometry" />
        </mxCell>
        <mxCell id="xeswV9jp_O2CNcTLCLhd-90" value="&lt;font style=&quot;font-size: 20px;&quot;&gt;Controller&lt;br&gt;&lt;/font&gt;" style="text;strokeColor=none;align=center;fillColor=none;html=1;verticalAlign=middle;whiteSpace=wrap;rounded=0;labelBackgroundColor=default;labelBorderColor=none;textShadow=0;movable=1;resizable=1;rotatable=1;deletable=1;editable=1;locked=0;connectable=1;" parent="xeswV9jp_O2CNcTLCLhd-88" vertex="1">
          <mxGeometry x="16.333333333333332" y="15" width="107.33333333333333" height="30" as="geometry" />
        </mxCell>
        <mxCell id="Gijpo5K5FCFng6KiPu0B-9" value="Legend" style="locked=1;" parent="0" />
        <mxCell id="Gijpo5K5FCFng6KiPu0B-37" value="" style="shape=table;startSize=10;container=1;collapsible=0;childLayout=tableLayout;fontFamily=Helvetica;fontSize=11;fontColor=default;labelBackgroundColor=none;strokeColor=none;align=left;fillStyle=solid;" vertex="1" parent="Gijpo5K5FCFng6KiPu0B-9">
          <mxGeometry x="370" y="250" width="160" height="100" as="geometry" />
        </mxCell>
        <mxCell id="Gijpo5K5FCFng6KiPu0B-38" value="" style="shape=tableRow;horizontal=0;startSize=0;swimlaneHead=0;swimlaneBody=0;strokeColor=inherit;top=0;left=0;bottom=0;right=0;collapsible=0;dropTarget=0;fillColor=none;points=[[0,0.5],[1,0.5]];portConstraint=eastwest;fontFamily=Helvetica;fontSize=11;fontColor=default;labelBackgroundColor=default;" vertex="1" parent="Gijpo5K5FCFng6KiPu0B-37">
          <mxGeometry y="10" width="160" height="18" as="geometry" />
        </mxCell>
        <mxCell id="Gijpo5K5FCFng6KiPu0B-39" value="&lt;div align=&quot;left&quot;&gt;&lt;span style=&quot;white-space: pre;&quot;&gt;&#x9;&lt;/span&gt;CHP&lt;/div&gt;" style="shape=partialRectangle;html=1;whiteSpace=wrap;connectable=0;strokeColor=inherit;overflow=hidden;fillColor=default;top=0;left=0;bottom=0;right=0;pointerEvents=1;fontFamily=Helvetica;fontSize=11;fontColor=#82B366;labelBackgroundColor=none;align=left;fillStyle=solid;fontStyle=1" vertex="1" parent="Gijpo5K5FCFng6KiPu0B-38">
          <mxGeometry width="80" height="18" as="geometry">
            <mxRectangle width="80" height="18" as="alternateBounds" />
          </mxGeometry>
        </mxCell>
        <mxCell id="Gijpo5K5FCFng6KiPu0B-40" value="Heartbeating" style="shape=partialRectangle;connectable=0;strokeColor=inherit;overflow=hidden;fillColor=default;top=0;left=0;bottom=0;right=0;pointerEvents=1;fontFamily=Helvetica;fontSize=11;fontColor=default;labelBackgroundColor=default;align=left;fillStyle=solid;whiteSpace=wrap;html=1;verticalAlign=bottom;" vertex="1" parent="Gijpo5K5FCFng6KiPu0B-38">
          <mxGeometry x="80" width="80" height="18" as="geometry">
            <mxRectangle width="80" height="18" as="alternateBounds" />
          </mxGeometry>
        </mxCell>
        <mxCell id="Gijpo5K5FCFng6KiPu0B-41" value="" style="shape=tableRow;horizontal=0;startSize=0;swimlaneHead=0;swimlaneBody=0;strokeColor=inherit;top=0;left=0;bottom=0;right=0;collapsible=0;dropTarget=0;fillColor=none;points=[[0,0.5],[1,0.5]];portConstraint=eastwest;fontFamily=Helvetica;fontSize=11;fontColor=default;labelBackgroundColor=default;verticalAlign=bottom;" vertex="1" parent="Gijpo5K5FCFng6KiPu0B-37">
          <mxGeometry y="28" width="160" height="18" as="geometry" />
        </mxCell>
        <mxCell id="Gijpo5K5FCFng6KiPu0B-42" value="&lt;div align=&quot;left&quot;&gt;&lt;span style=&quot;white-space: pre;&quot;&gt;&#x9;&lt;/span&gt;CSCP&lt;/div&gt;" style="shape=partialRectangle;html=1;whiteSpace=wrap;connectable=0;strokeColor=inherit;overflow=hidden;fillColor=default;top=0;left=0;bottom=0;right=0;pointerEvents=1;fontFamily=Helvetica;fontSize=11;fontColor=#B85450;labelBackgroundColor=none;align=left;fillStyle=solid;fontStyle=1" vertex="1" parent="Gijpo5K5FCFng6KiPu0B-41">
          <mxGeometry width="80" height="18" as="geometry">
            <mxRectangle width="80" height="18" as="alternateBounds" />
          </mxGeometry>
        </mxCell>
        <mxCell id="Gijpo5K5FCFng6KiPu0B-43" value="Control" style="shape=partialRectangle;html=1;whiteSpace=wrap;connectable=0;strokeColor=inherit;overflow=hidden;fillColor=default;top=0;left=0;bottom=0;right=0;pointerEvents=1;fontFamily=Helvetica;fontSize=11;fontColor=default;labelBackgroundColor=default;align=left;fillStyle=solid;" vertex="1" parent="Gijpo5K5FCFng6KiPu0B-41">
          <mxGeometry x="80" width="80" height="18" as="geometry">
            <mxRectangle width="80" height="18" as="alternateBounds" />
          </mxGeometry>
        </mxCell>
        <mxCell id="Gijpo5K5FCFng6KiPu0B-44" value="" style="shape=tableRow;horizontal=0;startSize=0;swimlaneHead=0;swimlaneBody=0;strokeColor=inherit;top=0;left=0;bottom=0;right=0;collapsible=0;dropTarget=0;fillColor=none;points=[[0,0.5],[1,0.5]];portConstraint=eastwest;fontFamily=Helvetica;fontSize=11;fontColor=default;labelBackgroundColor=default;" vertex="1" parent="Gijpo5K5FCFng6KiPu0B-37">
          <mxGeometry y="46" width="160" height="18" as="geometry" />
        </mxCell>
        <mxCell id="Gijpo5K5FCFng6KiPu0B-45" value="&lt;div align=&quot;left&quot;&gt;&lt;span style=&quot;white-space: pre;&quot;&gt;&#x9;&lt;/span&gt;CMDP&lt;/div&gt;" style="shape=partialRectangle;html=1;whiteSpace=wrap;connectable=0;strokeColor=inherit;overflow=hidden;fillColor=default;top=0;left=0;bottom=0;right=0;pointerEvents=1;fontFamily=Helvetica;fontSize=11;fontColor=#9673A6;labelBackgroundColor=none;align=left;fillStyle=solid;fontStyle=1" vertex="1" parent="Gijpo5K5FCFng6KiPu0B-44">
          <mxGeometry width="80" height="18" as="geometry">
            <mxRectangle width="80" height="18" as="alternateBounds" />
          </mxGeometry>
        </mxCell>
        <mxCell id="Gijpo5K5FCFng6KiPu0B-46" value="Monitoring" style="shape=partialRectangle;html=1;whiteSpace=wrap;connectable=0;strokeColor=inherit;overflow=hidden;fillColor=default;top=0;left=0;bottom=0;right=0;pointerEvents=1;fontFamily=Helvetica;fontSize=11;fontColor=default;labelBackgroundColor=default;align=left;fillStyle=solid;verticalAlign=bottom;" vertex="1" parent="Gijpo5K5FCFng6KiPu0B-44">
          <mxGeometry x="80" width="80" height="18" as="geometry">
            <mxRectangle width="80" height="18" as="alternateBounds" />
          </mxGeometry>
        </mxCell>
        <mxCell id="Gijpo5K5FCFng6KiPu0B-47" value="" style="shape=tableRow;horizontal=0;startSize=0;swimlaneHead=0;swimlaneBody=0;strokeColor=inherit;top=0;left=0;bottom=0;right=0;collapsible=0;dropTarget=0;fillColor=none;points=[[0,0.5],[1,0.5]];portConstraint=eastwest;fontFamily=Helvetica;fontSize=11;fontColor=default;labelBackgroundColor=default;" vertex="1" parent="Gijpo5K5FCFng6KiPu0B-37">
          <mxGeometry y="64" width="160" height="18" as="geometry" />
        </mxCell>
        <mxCell id="Gijpo5K5FCFng6KiPu0B-48" value="&lt;div align=&quot;left&quot;&gt;&lt;span style=&quot;white-space: pre;&quot;&gt;&#x9;&lt;/span&gt;CDTP&lt;/div&gt;" style="shape=partialRectangle;html=1;whiteSpace=wrap;connectable=0;strokeColor=inherit;overflow=hidden;fillColor=default;top=0;left=0;bottom=0;right=0;pointerEvents=1;fontFamily=Helvetica;fontSize=11;fontColor=#D79B00;labelBackgroundColor=none;align=left;fillStyle=solid;fontStyle=1" vertex="1" parent="Gijpo5K5FCFng6KiPu0B-47">
          <mxGeometry width="80" height="18" as="geometry">
            <mxRectangle width="80" height="18" as="alternateBounds" />
          </mxGeometry>
        </mxCell>
        <mxCell id="Gijpo5K5FCFng6KiPu0B-49" value="Data Transfer" style="shape=partialRectangle;html=1;whiteSpace=wrap;connectable=0;strokeColor=inherit;overflow=hidden;fillColor=default;top=0;left=0;bottom=0;right=0;pointerEvents=1;fontFamily=Helvetica;fontSize=11;fontColor=default;labelBackgroundColor=default;align=left;fillStyle=solid;verticalAlign=bottom;" vertex="1" parent="Gijpo5K5FCFng6KiPu0B-47">
          <mxGeometry x="80" width="80" height="18" as="geometry">
            <mxRectangle width="80" height="18" as="alternateBounds" />
          </mxGeometry>
        </mxCell>
        <mxCell id="Gijpo5K5FCFng6KiPu0B-50" value="" style="shape=tableRow;horizontal=0;startSize=0;swimlaneHead=0;swimlaneBody=0;strokeColor=inherit;top=0;left=0;bottom=0;right=0;collapsible=0;dropTarget=0;fillColor=none;points=[[0,0.5],[1,0.5]];portConstraint=eastwest;fontFamily=Helvetica;fontSize=11;fontColor=default;labelBackgroundColor=default;" vertex="1" parent="Gijpo5K5FCFng6KiPu0B-37">
          <mxGeometry y="82" width="160" height="18" as="geometry" />
        </mxCell>
        <mxCell id="Gijpo5K5FCFng6KiPu0B-51" value="&lt;div align=&quot;left&quot;&gt;&lt;font color=&quot;#5accaa&quot;&gt;&lt;span style=&quot;white-space: pre;&quot;&gt;&#x9;&lt;/span&gt;CHIRP&lt;/font&gt;&lt;/div&gt;" style="shape=partialRectangle;html=1;whiteSpace=wrap;connectable=0;strokeColor=inherit;overflow=hidden;fillColor=default;top=0;left=0;bottom=0;right=0;pointerEvents=1;fontFamily=Helvetica;fontSize=11;fontColor=#6C8EBF;labelBackgroundColor=none;align=left;fillStyle=solid;fontStyle=1" vertex="1" parent="Gijpo5K5FCFng6KiPu0B-50">
          <mxGeometry width="80" height="18" as="geometry">
            <mxRectangle width="80" height="18" as="alternateBounds" />
          </mxGeometry>
        </mxCell>
        <mxCell id="Gijpo5K5FCFng6KiPu0B-52" value="Discovery" style="shape=partialRectangle;html=1;whiteSpace=wrap;connectable=0;strokeColor=inherit;overflow=hidden;fillColor=default;top=0;left=0;bottom=0;right=0;pointerEvents=1;fontFamily=Helvetica;fontSize=11;fontColor=default;labelBackgroundColor=default;align=left;fillStyle=solid;verticalAlign=bottom;" vertex="1" parent="Gijpo5K5FCFng6KiPu0B-50">
          <mxGeometry x="80" width="80" height="18" as="geometry">
            <mxRectangle width="80" height="18" as="alternateBounds" />
          </mxGeometry>
        </mxCell>
        <mxCell id="xeswV9jp_O2CNcTLCLhd-77" value="CHP" style="locked=1;" parent="0" />
        <mxCell id="xeswV9jp_O2CNcTLCLhd-78" style="edgeStyle=none;rounded=0;orthogonalLoop=1;jettySize=auto;html=1;exitX=1;exitY=1;exitDx=0;exitDy=0;entryX=0;entryY=0;entryDx=0;entryDy=0;elbow=vertical;strokeWidth=2;fillColor=#d5e8d4;strokeColor=#82b366;gradientColor=#97d077;align=center;verticalAlign=middle;fontFamily=Helvetica;fontSize=11;fontColor=default;labelBackgroundColor=default;jumpStyle=gap;endArrow=classic;" parent="xeswV9jp_O2CNcTLCLhd-77" source="xeswV9jp_O2CNcTLCLhd-57" target="xeswV9jp_O2CNcTLCLhd-89" edge="1">
          <mxGeometry relative="1" as="geometry">
            <mxPoint x="290" y="60" as="sourcePoint" />
            <mxPoint x="390" y="165" as="targetPoint" />
          </mxGeometry>
        </mxCell>
        <mxCell id="xeswV9jp_O2CNcTLCLhd-79" style="edgeStyle=none;rounded=0;orthogonalLoop=1;jettySize=auto;html=1;exitX=1;exitY=0;exitDx=0;exitDy=0;entryX=0;entryY=1;entryDx=0;entryDy=0;fillColor=#d5e8d4;gradientColor=#97d077;strokeColor=#82b366;strokeWidth=2;align=center;verticalAlign=middle;fontFamily=Helvetica;fontSize=11;fontColor=default;labelBackgroundColor=default;jumpStyle=gap;endArrow=classic;" parent="xeswV9jp_O2CNcTLCLhd-77" source="xeswV9jp_O2CNcTLCLhd-60" target="xeswV9jp_O2CNcTLCLhd-89" edge="1">
          <mxGeometry relative="1" as="geometry">
            <mxPoint x="290" y="300" as="sourcePoint" />
            <mxPoint x="390" y="195" as="targetPoint" />
          </mxGeometry>
        </mxCell>
        <mxCell id="xeswV9jp_O2CNcTLCLhd-80" style="edgeStyle=none;rounded=0;orthogonalLoop=1;jettySize=auto;html=1;exitX=1;exitY=0.5;exitDx=0;exitDy=0;entryX=0;entryY=0.5;entryDx=0;entryDy=0;fillColor=#d5e8d4;gradientColor=#97d077;strokeColor=#82b366;strokeWidth=2;align=center;verticalAlign=middle;fontFamily=Helvetica;fontSize=11;fontColor=default;labelBackgroundColor=default;jumpStyle=gap;endArrow=classic;" parent="xeswV9jp_O2CNcTLCLhd-77" source="xeswV9jp_O2CNcTLCLhd-68" target="xeswV9jp_O2CNcTLCLhd-89" edge="1">
          <mxGeometry relative="1" as="geometry">
            <mxPoint x="170" y="180" as="sourcePoint" />
            <mxPoint x="390" y="180" as="targetPoint" />
          </mxGeometry>
        </mxCell>
        <mxCell id="xeswV9jp_O2CNcTLCLhd-81" style="rounded=0;orthogonalLoop=1;jettySize=auto;html=1;exitX=0.5;exitY=0;exitDx=0;exitDy=0;entryX=0;entryY=0.75;entryDx=0;entryDy=0;sourcePerimeterSpacing=0;targetPerimeterSpacing=0;jumpStyle=gap;flowAnimation=0;strokeWidth=2;endSize=6;jumpSize=6;fillColor=#d5e8d4;strokeColor=#82b366;gradientColor=#97d077;align=center;verticalAlign=middle;fontFamily=Helvetica;fontSize=11;fontColor=default;labelBackgroundColor=default;edgeStyle=orthogonalEdgeStyle;endArrow=classic;" parent="xeswV9jp_O2CNcTLCLhd-77" source="xeswV9jp_O2CNcTLCLhd-68" target="xeswV9jp_O2CNcTLCLhd-57" edge="1">
          <mxGeometry relative="1" as="geometry">
            <mxPoint x="100" y="150" as="sourcePoint" />
            <mxPoint x="150" y="90" as="targetPoint" />
          </mxGeometry>
        </mxCell>
        <mxCell id="xeswV9jp_O2CNcTLCLhd-82" style="rounded=0;orthogonalLoop=1;jettySize=auto;html=1;entryX=0.25;entryY=0;entryDx=0;entryDy=0;fillColor=#d5e8d4;strokeColor=#82b366;strokeWidth=2;gradientColor=#97d077;align=center;verticalAlign=middle;fontFamily=Helvetica;fontSize=11;fontColor=default;labelBackgroundColor=default;edgeStyle=orthogonalEdgeStyle;jumpStyle=gap;endArrow=classic;exitX=0;exitY=0.5;exitDx=0;exitDy=0;" parent="xeswV9jp_O2CNcTLCLhd-77" source="xeswV9jp_O2CNcTLCLhd-57" target="xeswV9jp_O2CNcTLCLhd-68" edge="1">
          <mxGeometry relative="1" as="geometry">
            <mxPoint x="180" y="80" as="sourcePoint" />
            <mxPoint x="135" y="150" as="targetPoint" />
          </mxGeometry>
        </mxCell>
        <mxCell id="xeswV9jp_O2CNcTLCLhd-83" style="rounded=0;orthogonalLoop=1;jettySize=auto;html=1;exitX=0;exitY=0.25;exitDx=0;exitDy=0;entryX=0.5;entryY=1;entryDx=0;entryDy=0;strokeWidth=2;fillColor=#d5e8d4;gradientColor=#97d077;strokeColor=#82b366;align=center;verticalAlign=middle;fontFamily=Helvetica;fontSize=11;fontColor=default;labelBackgroundColor=default;edgeStyle=orthogonalEdgeStyle;jumpStyle=gap;endArrow=classic;" parent="xeswV9jp_O2CNcTLCLhd-77" source="xeswV9jp_O2CNcTLCLhd-60" target="xeswV9jp_O2CNcTLCLhd-68" edge="1">
          <mxGeometry relative="1" as="geometry">
            <mxPoint x="185" y="270" as="sourcePoint" />
            <mxPoint x="135" y="210" as="targetPoint" />
            <Array as="points">
              <mxPoint x="100" y="285" />
            </Array>
          </mxGeometry>
        </mxCell>
        <mxCell id="xeswV9jp_O2CNcTLCLhd-84" style="rounded=0;orthogonalLoop=1;jettySize=auto;html=1;exitX=0.25;exitY=1;exitDx=0;exitDy=0;entryX=0;entryY=0.5;entryDx=0;entryDy=0;fillColor=#d5e8d4;gradientColor=#97d077;strokeColor=#82b366;strokeWidth=2;align=center;verticalAlign=middle;fontFamily=Helvetica;fontSize=11;fontColor=default;labelBackgroundColor=default;edgeStyle=orthogonalEdgeStyle;jumpStyle=gap;endArrow=classic;" parent="xeswV9jp_O2CNcTLCLhd-77" source="xeswV9jp_O2CNcTLCLhd-68" target="xeswV9jp_O2CNcTLCLhd-60" edge="1">
          <mxGeometry relative="1" as="geometry">
            <mxPoint x="100" y="210" as="sourcePoint" />
            <mxPoint x="150" y="270" as="targetPoint" />
          </mxGeometry>
        </mxCell>
        <mxCell id="xeswV9jp_O2CNcTLCLhd-85" style="rounded=0;orthogonalLoop=1;jettySize=auto;html=1;exitX=0.5;exitY=1;exitDx=0;exitDy=0;entryX=0.5;entryY=0;entryDx=0;entryDy=0;fillColor=#d5e8d4;gradientColor=#97d077;strokeColor=#82b366;strokeWidth=2;elbow=vertical;jumpStyle=gap;" parent="xeswV9jp_O2CNcTLCLhd-77" source="xeswV9jp_O2CNcTLCLhd-57" target="xeswV9jp_O2CNcTLCLhd-60" edge="1">
          <mxGeometry relative="1" as="geometry">
            <mxPoint x="220" y="90" as="sourcePoint" />
            <mxPoint x="220" y="270" as="targetPoint" />
          </mxGeometry>
        </mxCell>
        <mxCell id="xeswV9jp_O2CNcTLCLhd-86" style="edgeStyle=none;rounded=0;orthogonalLoop=1;jettySize=auto;html=1;exitX=0.786;exitY=0;exitDx=0;exitDy=0;entryX=0.786;entryY=1;entryDx=0;entryDy=0;strokeWidth=2;fillColor=#d5e8d4;gradientColor=#97d077;strokeColor=#82b366;jumpStyle=gap;entryPerimeter=0;exitPerimeter=0;" parent="xeswV9jp_O2CNcTLCLhd-77" source="xeswV9jp_O2CNcTLCLhd-60" target="xeswV9jp_O2CNcTLCLhd-57" edge="1">
          <mxGeometry relative="1" as="geometry">
            <mxPoint x="255" y="270" as="sourcePoint" />
            <mxPoint x="255" y="90" as="targetPoint" />
          </mxGeometry>
        </mxCell>
        <mxCell id="xeswV9jp_O2CNcTLCLhd-93" value="CSCP" style="locked=1;" parent="0" />
        <mxCell id="xeswV9jp_O2CNcTLCLhd-99" style="edgeStyle=orthogonalEdgeStyle;shape=connector;rounded=0;jumpStyle=gap;orthogonalLoop=1;jettySize=auto;html=1;exitX=0;exitY=0.25;exitDx=0;exitDy=0;entryX=1;entryY=0.25;entryDx=0;entryDy=0;strokeColor=#b85450;strokeWidth=2;align=center;verticalAlign=middle;fontFamily=Helvetica;fontSize=11;fontColor=default;labelBackgroundColor=default;elbow=vertical;endArrow=classic;fillColor=#f8cecc;gradientColor=#ea6b66;startArrow=classic;startFill=1;" parent="xeswV9jp_O2CNcTLCLhd-93" source="xeswV9jp_O2CNcTLCLhd-89" target="xeswV9jp_O2CNcTLCLhd-68" edge="1">
          <mxGeometry relative="1" as="geometry" />
        </mxCell>
        <mxCell id="xeswV9jp_O2CNcTLCLhd-101" style="shape=connector;rounded=0;jumpStyle=gap;orthogonalLoop=1;jettySize=auto;html=1;exitX=0.25;exitY=0;exitDx=0;exitDy=0;entryX=1;entryY=0.5;entryDx=0;entryDy=0;strokeColor=#b85450;strokeWidth=2;align=center;verticalAlign=middle;fontFamily=Helvetica;fontSize=11;fontColor=default;labelBackgroundColor=default;elbow=vertical;endArrow=classic;fillColor=#f8cecc;gradientColor=#ea6b66;startArrow=classic;startFill=1;edgeStyle=orthogonalEdgeStyle;" parent="xeswV9jp_O2CNcTLCLhd-93" source="xeswV9jp_O2CNcTLCLhd-89" target="xeswV9jp_O2CNcTLCLhd-57" edge="1">
          <mxGeometry relative="1" as="geometry">
            <Array as="points">
              <mxPoint x="425" y="120" />
              <mxPoint x="360" y="120" />
              <mxPoint x="360" y="60" />
            </Array>
          </mxGeometry>
        </mxCell>
        <mxCell id="xeswV9jp_O2CNcTLCLhd-102" style="shape=connector;rounded=0;jumpStyle=gap;orthogonalLoop=1;jettySize=auto;html=1;exitX=1;exitY=0.5;exitDx=0;exitDy=0;entryX=0.25;entryY=1;entryDx=0;entryDy=0;strokeColor=#b85450;strokeWidth=2;align=center;verticalAlign=middle;fontFamily=Helvetica;fontSize=11;fontColor=default;labelBackgroundColor=default;elbow=vertical;endArrow=classic;fillColor=#f8cecc;gradientColor=#ea6b66;startArrow=classic;startFill=1;edgeStyle=orthogonalEdgeStyle;" parent="xeswV9jp_O2CNcTLCLhd-93" source="xeswV9jp_O2CNcTLCLhd-60" target="xeswV9jp_O2CNcTLCLhd-89" edge="1">
          <mxGeometry relative="1" as="geometry">
            <Array as="points">
              <mxPoint x="360" y="300" />
              <mxPoint x="360" y="240" />
              <mxPoint x="425" y="240" />
            </Array>
          </mxGeometry>
        </mxCell>
        <mxCell id="xeswV9jp_O2CNcTLCLhd-105" value="CMDP" style="locked=1;" parent="0" />
        <mxCell id="xeswV9jp_O2CNcTLCLhd-106" value="" style="group" parent="xeswV9jp_O2CNcTLCLhd-105" vertex="1" connectable="0">
          <mxGeometry x="390" y="30" width="140" height="60" as="geometry" />
        </mxCell>
        <mxCell id="xeswV9jp_O2CNcTLCLhd-107" value="" style="rounded=0;whiteSpace=wrap;html=1;strokeWidth=2;fillWeight=4;hachureGap=8;hachureAngle=45;fillColor=#e1d5e7;shadow=0;glass=0;fillStyle=hatch;strokeColor=#9673a6;fixDash=0;" parent="xeswV9jp_O2CNcTLCLhd-106" vertex="1">
          <mxGeometry width="140" height="60" as="geometry" />
        </mxCell>
        <mxCell id="xeswV9jp_O2CNcTLCLhd-108" value="&lt;font style=&quot;font-size: 20px;&quot;&gt;Listener&lt;br&gt;&lt;/font&gt;" style="text;strokeColor=none;align=center;fillColor=none;html=1;verticalAlign=middle;whiteSpace=wrap;rounded=0;labelBackgroundColor=default;labelBorderColor=none;textShadow=0;movable=1;resizable=1;rotatable=1;deletable=1;editable=1;locked=0;connectable=1;" parent="xeswV9jp_O2CNcTLCLhd-106" vertex="1">
          <mxGeometry x="16.333333333333336" y="15" width="107.33333333333334" height="30" as="geometry" />
        </mxCell>
        <mxCell id="xeswV9jp_O2CNcTLCLhd-109" style="edgeStyle=orthogonalEdgeStyle;shape=connector;rounded=0;jumpStyle=gap;orthogonalLoop=1;jettySize=auto;html=1;exitX=1;exitY=0.25;exitDx=0;exitDy=0;entryX=0;entryY=0.25;entryDx=0;entryDy=0;strokeColor=#9673a6;strokeWidth=2;align=center;verticalAlign=middle;fontFamily=Helvetica;fontSize=11;fontColor=default;labelBackgroundColor=default;elbow=vertical;endArrow=classic;fillColor=#e1d5e7;" parent="xeswV9jp_O2CNcTLCLhd-105" source="xeswV9jp_O2CNcTLCLhd-57" target="xeswV9jp_O2CNcTLCLhd-107" edge="1">
          <mxGeometry relative="1" as="geometry" />
        </mxCell>
        <mxCell id="xeswV9jp_O2CNcTLCLhd-110" style="edgeStyle=orthogonalEdgeStyle;shape=connector;rounded=0;jumpStyle=gap;orthogonalLoop=1;jettySize=auto;html=1;exitX=1;exitY=0.75;exitDx=0;exitDy=0;entryX=0;entryY=0.75;entryDx=0;entryDy=0;strokeColor=#9673a6;strokeWidth=2;align=center;verticalAlign=middle;fontFamily=Helvetica;fontSize=11;fontColor=default;labelBackgroundColor=default;elbow=vertical;endArrow=classic;fillColor=#e1d5e7;" parent="xeswV9jp_O2CNcTLCLhd-105" source="xeswV9jp_O2CNcTLCLhd-60" target="xeswV9jp_O2CNcTLCLhd-107" edge="1">
          <mxGeometry relative="1" as="geometry" />
        </mxCell>
        <mxCell id="xeswV9jp_O2CNcTLCLhd-111" style="edgeStyle=orthogonalEdgeStyle;shape=connector;rounded=0;jumpStyle=gap;orthogonalLoop=1;jettySize=auto;html=1;exitX=1;exitY=0.5;exitDx=0;exitDy=0;strokeColor=#9673a6;strokeWidth=2;align=center;verticalAlign=middle;fontFamily=Helvetica;fontSize=11;fontColor=default;labelBackgroundColor=default;elbow=vertical;endArrow=classic;fillColor=#e1d5e7;entryX=0;entryY=0.5;entryDx=0;entryDy=0;" parent="xeswV9jp_O2CNcTLCLhd-105" source="xeswV9jp_O2CNcTLCLhd-68" target="xeswV9jp_O2CNcTLCLhd-107" edge="1">
          <mxGeometry relative="1" as="geometry">
            <mxPoint x="180" y="180" as="sourcePoint" />
            <mxPoint x="380" y="60" as="targetPoint" />
            <Array as="points">
              <mxPoint x="320" y="180" />
              <mxPoint x="320" y="60" />
            </Array>
          </mxGeometry>
        </mxCell>
        <mxCell id="xeswV9jp_O2CNcTLCLhd-112" value="CDTP" style="locked=1;" parent="0" />
        <mxCell id="Gijpo5K5FCFng6KiPu0B-7" style="edgeStyle=orthogonalEdgeStyle;rounded=0;orthogonalLoop=1;jettySize=auto;html=1;entryX=0.357;entryY=0;entryDx=0;entryDy=0;entryPerimeter=0;exitX=0.75;exitY=1;exitDx=0;exitDy=0;strokeWidth=2;fillColor=#ffe6cc;strokeColor=#d79b00;jumpStyle=gap;" edge="1" parent="xeswV9jp_O2CNcTLCLhd-112" source="xeswV9jp_O2CNcTLCLhd-68" target="xeswV9jp_O2CNcTLCLhd-60">
          <mxGeometry relative="1" as="geometry">
            <mxPoint x="90" y="130.00000000000006" as="targetPoint" />
            <mxPoint x="180" y="200" as="sourcePoint" />
            <Array as="points">
              <mxPoint x="135" y="240" />
              <mxPoint x="200" y="240" />
            </Array>
          </mxGeometry>
        </mxCell>
        <mxCell id="Gijpo5K5FCFng6KiPu0B-8" style="edgeStyle=orthogonalEdgeStyle;rounded=0;orthogonalLoop=1;jettySize=auto;html=1;strokeWidth=2;fillColor=#ffe6cc;strokeColor=#d79b00;jumpStyle=gap;entryX=0.643;entryY=0;entryDx=0;entryDy=0;entryPerimeter=0;exitX=0.643;exitY=1;exitDx=0;exitDy=0;exitPerimeter=0;" edge="1" parent="xeswV9jp_O2CNcTLCLhd-112" source="xeswV9jp_O2CNcTLCLhd-57" target="xeswV9jp_O2CNcTLCLhd-60">
          <mxGeometry relative="1" as="geometry">
            <mxPoint x="240" y="260" as="targetPoint" />
            <mxPoint x="240" y="90" as="sourcePoint" />
          </mxGeometry>
        </mxCell>
        <mxCell id="Gijpo5K5FCFng6KiPu0B-55" value="CHIRP" style="locked=1;" parent="0" />
        <mxCell id="Gijpo5K5FCFng6KiPu0B-57" style="shape=connector;rounded=0;jumpStyle=gap;orthogonalLoop=1;jettySize=auto;html=1;strokeColor=#5ACCAA;strokeWidth=2;align=center;verticalAlign=middle;fontFamily=Helvetica;fontSize=11;fontColor=default;labelBackgroundColor=default;endArrow=classic;fillColor=#ffe6cc;entryX=0.357;entryY=1;entryDx=0;entryDy=0;entryPerimeter=0;edgeStyle=orthogonalEdgeStyle;elbow=vertical;exitX=0;exitY=0.75;exitDx=0;exitDy=0;startArrow=classic;startFill=1;" edge="1" parent="Gijpo5K5FCFng6KiPu0B-55" source="xeswV9jp_O2CNcTLCLhd-89" target="xeswV9jp_O2CNcTLCLhd-57">
          <mxGeometry relative="1" as="geometry">
            <mxPoint x="190" y="100" as="targetPoint" />
            <mxPoint x="360" y="200" as="sourcePoint" />
            <Array as="points">
              <mxPoint x="200" y="195" />
            </Array>
          </mxGeometry>
        </mxCell>
        <mxCell id="Gijpo5K5FCFng6KiPu0B-59" style="edgeStyle=orthogonalEdgeStyle;shape=connector;rounded=0;jumpStyle=gap;orthogonalLoop=1;jettySize=auto;html=1;exitX=0;exitY=0.75;exitDx=0;exitDy=0;entryX=0.929;entryY=0;entryDx=0;entryDy=0;entryPerimeter=0;strokeColor=#5ACCAA;strokeWidth=2;align=center;verticalAlign=middle;fontFamily=Helvetica;fontSize=11;fontColor=default;labelBackgroundColor=default;elbow=vertical;endArrow=classic;fillColor=#ffe6cc;startArrow=classic;startFill=1;" edge="1" parent="Gijpo5K5FCFng6KiPu0B-55" source="xeswV9jp_O2CNcTLCLhd-89" target="xeswV9jp_O2CNcTLCLhd-60">
          <mxGeometry relative="1" as="geometry" />
        </mxCell>
        <mxCell id="Gijpo5K5FCFng6KiPu0B-60" style="edgeStyle=orthogonalEdgeStyle;shape=connector;rounded=0;jumpStyle=gap;orthogonalLoop=1;jettySize=auto;html=1;exitX=0;exitY=0.75;exitDx=0;exitDy=0;entryX=1;entryY=0.75;entryDx=0;entryDy=0;strokeColor=#5ACCAA;strokeWidth=2;align=center;verticalAlign=middle;fontFamily=Helvetica;fontSize=11;fontColor=default;labelBackgroundColor=default;elbow=vertical;endArrow=classic;fillColor=#ffe6cc;startArrow=classic;startFill=1;" edge="1" parent="Gijpo5K5FCFng6KiPu0B-55" source="xeswV9jp_O2CNcTLCLhd-89" target="xeswV9jp_O2CNcTLCLhd-68">
          <mxGeometry relative="1" as="geometry" />
        </mxCell>
        <mxCell id="Gijpo5K5FCFng6KiPu0B-64" style="edgeStyle=orthogonalEdgeStyle;shape=connector;rounded=0;jumpStyle=gap;orthogonalLoop=1;jettySize=auto;html=1;entryX=0.25;entryY=1;entryDx=0;entryDy=0;strokeColor=#5ACCAA;strokeWidth=2;align=center;verticalAlign=middle;fontFamily=Helvetica;fontSize=11;fontColor=default;labelBackgroundColor=default;elbow=vertical;endArrow=classic;fillColor=#ffe6cc;startArrow=classic;startFill=1;exitX=1;exitY=0.75;exitDx=0;exitDy=0;" edge="1" parent="Gijpo5K5FCFng6KiPu0B-55" source="xeswV9jp_O2CNcTLCLhd-68" target="xeswV9jp_O2CNcTLCLhd-107">
          <mxGeometry relative="1" as="geometry">
            <mxPoint x="280" y="230" as="sourcePoint" />
            <Array as="points">
              <mxPoint x="360" y="195" />
              <mxPoint x="360" y="110" />
              <mxPoint x="425" y="110" />
            </Array>
          </mxGeometry>
        </mxCell>
        <mxCell id="Gijpo5K5FCFng6KiPu0B-66" style="edgeStyle=orthogonalEdgeStyle;shape=connector;rounded=0;jumpStyle=gap;orthogonalLoop=1;jettySize=auto;html=1;entryX=0.25;entryY=1;entryDx=0;entryDy=0;strokeColor=#5ACCAA;strokeWidth=2;align=center;verticalAlign=middle;fontFamily=Helvetica;fontSize=11;fontColor=default;labelBackgroundColor=default;elbow=vertical;startArrow=classic;startFill=1;endArrow=classic;fillColor=#ffe6cc;" edge="1" parent="Gijpo5K5FCFng6KiPu0B-55" source="xeswV9jp_O2CNcTLCLhd-60" target="xeswV9jp_O2CNcTLCLhd-107">
          <mxGeometry relative="1" as="geometry">
            <mxPoint x="280" y="270" as="sourcePoint" />
            <Array as="points">
              <mxPoint x="280" y="195" />
              <mxPoint x="360" y="195" />
              <mxPoint x="360" y="110" />
              <mxPoint x="425" y="110" />
            </Array>
          </mxGeometry>
        </mxCell>
        <mxCell id="Gijpo5K5FCFng6KiPu0B-70" style="edgeStyle=orthogonalEdgeStyle;shape=connector;rounded=0;jumpStyle=gap;orthogonalLoop=1;jettySize=auto;html=1;exitX=1;exitY=0.75;exitDx=0;exitDy=0;strokeColor=#5ACCAA;strokeWidth=2;align=center;verticalAlign=middle;fontFamily=Helvetica;fontSize=11;fontColor=default;labelBackgroundColor=default;elbow=vertical;startArrow=classic;startFill=1;endArrow=classic;fillColor=#ffe6cc;entryX=0.357;entryY=1;entryDx=0;entryDy=0;entryPerimeter=0;" edge="1" parent="Gijpo5K5FCFng6KiPu0B-55" source="xeswV9jp_O2CNcTLCLhd-68" target="xeswV9jp_O2CNcTLCLhd-57">
          <mxGeometry relative="1" as="geometry">
            <mxPoint x="200" y="110" as="targetPoint" />
          </mxGeometry>
        </mxCell>
        <mxCell id="Gijpo5K5FCFng6KiPu0B-73" style="edgeStyle=orthogonalEdgeStyle;shape=connector;rounded=0;jumpStyle=gap;orthogonalLoop=1;jettySize=auto;html=1;strokeColor=#5ACCAA;strokeWidth=2;align=center;verticalAlign=middle;fontFamily=Helvetica;fontSize=11;fontColor=default;labelBackgroundColor=default;elbow=vertical;startArrow=classic;startFill=1;endArrow=classic;fillColor=#ffe6cc;exitX=0.929;exitY=0;exitDx=0;exitDy=0;exitPerimeter=0;entryX=0.357;entryY=1;entryDx=0;entryDy=0;entryPerimeter=0;" edge="1" parent="Gijpo5K5FCFng6KiPu0B-55" source="xeswV9jp_O2CNcTLCLhd-60" target="xeswV9jp_O2CNcTLCLhd-57">
          <mxGeometry relative="1" as="geometry">
            <mxPoint x="200" y="120" as="targetPoint" />
            <mxPoint x="280" y="250" as="sourcePoint" />
            <Array as="points">
              <mxPoint x="280" y="195" />
              <mxPoint x="200" y="195" />
            </Array>
          </mxGeometry>
        </mxCell>
        <mxCell id="Gijpo5K5FCFng6KiPu0B-67" style="edgeStyle=orthogonalEdgeStyle;shape=connector;rounded=0;jumpStyle=gap;orthogonalLoop=1;jettySize=auto;html=1;exitX=0.25;exitY=1;exitDx=0;exitDy=0;strokeColor=#5ACCAA;strokeWidth=2;align=center;verticalAlign=middle;fontFamily=Helvetica;fontSize=11;fontColor=default;labelBackgroundColor=default;elbow=vertical;startArrow=classic;startFill=1;endArrow=classic;fillColor=#ffe6cc;entryX=1;entryY=0.75;entryDx=0;entryDy=0;" edge="1" parent="Gijpo5K5FCFng6KiPu0B-55" source="xeswV9jp_O2CNcTLCLhd-107" target="xeswV9jp_O2CNcTLCLhd-68">
          <mxGeometry relative="1" as="geometry">
            <mxPoint x="190" y="130" as="targetPoint" />
            <Array as="points">
              <mxPoint x="425" y="110" />
              <mxPoint x="360" y="110" />
              <mxPoint x="360" y="195" />
            </Array>
          </mxGeometry>
        </mxCell>
        <mxCell id="Gijpo5K5FCFng6KiPu0B-69" style="edgeStyle=orthogonalEdgeStyle;shape=connector;rounded=0;jumpStyle=gap;orthogonalLoop=1;jettySize=auto;html=1;exitX=0.25;exitY=1;exitDx=0;exitDy=0;strokeColor=#5ACCAA;strokeWidth=2;align=center;verticalAlign=middle;fontFamily=Helvetica;fontSize=11;fontColor=default;labelBackgroundColor=default;elbow=vertical;startArrow=classic;startFill=1;endArrow=classic;fillColor=#ffe6cc;" edge="1" parent="Gijpo5K5FCFng6KiPu0B-55" source="xeswV9jp_O2CNcTLCLhd-107" target="xeswV9jp_O2CNcTLCLhd-57">
          <mxGeometry relative="1" as="geometry">
            <mxPoint x="425" y="90" as="sourcePoint" />
            <mxPoint x="200" y="90" as="targetPoint" />
            <Array as="points">
              <mxPoint x="425" y="110" />
              <mxPoint x="360" y="110" />
              <mxPoint x="360" y="195" />
              <mxPoint x="200" y="195" />
            </Array>
          </mxGeometry>
        </mxCell>
        <mxCell id="Gijpo5K5FCFng6KiPu0B-72" style="edgeStyle=orthogonalEdgeStyle;shape=connector;rounded=0;jumpStyle=gap;orthogonalLoop=1;jettySize=auto;html=1;exitX=1;exitY=0.75;exitDx=0;exitDy=0;strokeColor=#5ACCAA;strokeWidth=2;align=center;verticalAlign=middle;fontFamily=Helvetica;fontSize=11;fontColor=default;labelBackgroundColor=default;elbow=vertical;startArrow=classic;startFill=1;endArrow=classic;fillColor=#ffe6cc;entryX=0.929;entryY=0;entryDx=0;entryDy=0;entryPerimeter=0;" edge="1" parent="Gijpo5K5FCFng6KiPu0B-55" source="xeswV9jp_O2CNcTLCLhd-68" target="xeswV9jp_O2CNcTLCLhd-60">
          <mxGeometry relative="1" as="geometry">
            <mxPoint x="300" y="260" as="targetPoint" />
            <mxPoint x="170" y="195" as="sourcePoint" />
          </mxGeometry>
        </mxCell>
      </root>
    </mxGraphModel>
  </diagram>
</mxfile>
